<!-- <svg fill="#8c939e" viewBox="0 0 24 24" xmlns="http://www.w3.org/2000/svg">
    <g id="SVGRepo_bgCarrier" stroke-width="0"></g>
    <g id="SVGRepo_tracerCarrier" stroke-linecap="round" stroke-linejoin="round"></g>
    <g id="SVGRepo_iconCarrier">
        <path d="M5,22H19a3,3,0,0,0,3-3V10a3,3,0,0,0-3-3H17V6A5,5,0,0,0,7,6V7H5a3,3,0,0,0-3,3v9A3,3,0,0,0,5,22ZM9,6a3,3,0,0,1,6,0V7H9ZM4,10A1,1,0,0,1,5,9H19a1,1,0,0,1,1,1v9a1,1,0,0,1-1,1H5a1,1,0,0,1-1-1Zm6,4.5a2,2,0,1,1,2,2A2,2,0,0,1,10,14.5Z"></path>
    </g>
</svg> -->

<svg viewBox="0 0 24 24" fill="none" xmlns="http://www.w3.org/2000/svg">
    <g id="SVGRepo_bgCarrier" stroke-width="0"></g>
    <g id="SVGRepo_tracerCarrier" stroke-linecap="round" stroke-linejoin="round"></g>
    <g id="SVGRepo_iconCarrier"> 
        <path d="M4 13C4 11.1144 4 10.1716 4.58579 9.58579C5.17157 9 6.11438 9 8 9H16C17.8856 9 18.8284 9 19.4142 9.58579C20 10.1716 20 11.1144 20 13V15C20 17.8284 20 19.2426 19.1213 20.1213C18.2426 21 16.8284 21 14 21H10C7.17157 21 5.75736 21 4.87868 20.1213C4 19.2426 4 17.8284 4 15V13Z" stroke="#8c939e"></path> 
        <path d="M16 8V7C16 4.79086 14.2091 3 12 3V3C9.79086 3 8 4.79086 8 7V8" stroke="#8c939e" stroke-linecap="round"></path> 
        <circle cx="12" cy="15" r="2" fill="#8c939e"></circle> 
    </g>
</svg>